<svg width="24" height="24" viewBox="0 0 24 24" fill="none" xmlns="http://www.w3.org/2000/svg">
<path d="M9.15477 21.1357C9.15472 21.142 9.1543 21.1482 9.1543 21.1545C9.1543 22.7261 10.4283 24.0001 11.9999 24.0001C13.5714 24.0001 14.8454 22.7261 14.8454 21.1545C14.8454 21.1482 14.845 21.142 14.845 21.1357H9.15477Z" fill="#172ACE"/>
<path d="M21.0852 17.5787L18.5242 13.8167C18.5242 12.665 18.5242 9.85103 18.5242 9.12309C18.5242 5.95776 16.2699 3.31926 13.2793 2.72466V1.27933C13.2793 0.572812 12.7065 0 11.9999 0C11.2934 0 10.7206 0.572812 10.7206 1.27933V2.72471C7.72999 3.31936 5.47573 5.95786 5.47573 9.12314C5.47573 10.3623 5.47573 13.0985 5.47573 13.8167L2.91472 17.5788C2.64495 17.975 2.61643 18.488 2.84058 18.9117C3.06473 19.3355 3.50477 19.6005 3.98416 19.6005H20.0157C20.4951 19.6005 20.9351 19.3354 21.1593 18.9117C21.3835 18.4879 21.3549 17.975 21.0852 17.5787Z" fill="#172ACE"/>
</svg>
