<svg width="15" height="15" viewBox="0 0 15 15" fill="none" xmlns="http://www.w3.org/2000/svg">
<path fill-rule="evenodd" clip-rule="evenodd" d="M1.57169 1.40843C2.24455 0.753592 3.32082 0.76823 3.97563 1.44107L7.53258 5.09595L11.1875 1.539C11.8603 0.884167 12.9366 0.898806 13.5914 1.57164C14.2462 2.24451 14.2316 3.32075 13.5588 3.97559L9.90387 7.53253L13.4608 11.1874C14.1157 11.8603 14.101 12.9365 13.4282 13.5914C12.7553 14.2462 11.6791 14.2316 11.0242 13.5587L7.46729 9.90383L3.81241 13.4608C3.13957 14.1156 2.0633 14.101 1.40847 13.4281C0.753647 12.7553 0.768274 11.679 1.44111 11.0242L5.09599 7.46725L1.53904 3.81237C0.884234 3.13953 0.898837 2.06325 1.57169 1.40843Z" fill="#172ACE"/>
</svg>
