<svg width="15" height="15" viewBox="0 0 15 15" fill="none" xmlns="http://www.w3.org/2000/svg">
<path d="M10.4257 9.8021L8.01791 8.38544V5.17669C8.01791 4.89335 7.78928 4.66669 7.50349 4.66669H7.46062C7.17483 4.66669 6.9462 4.89335 6.9462 5.17669V8.52002C6.9462 8.76794 7.07481 9.00169 7.29629 9.12919L9.90413 10.6804C10.147 10.8221 10.4614 10.7513 10.6043 10.5104C10.7544 10.2625 10.6758 9.94377 10.4257 9.8021ZM14.2196 2.54877L12.019 0.735435C11.7189 0.487518 11.2688 0.522935 11.0116 0.827518C10.7615 1.12502 10.8044 1.57127 11.1044 1.82627L13.2979 3.6396C13.598 3.88752 14.0481 3.8521 14.3053 3.54752C14.5625 3.25002 14.5196 2.80377 14.2196 2.54877ZM2.01632 3.6396L4.20976 1.82627C4.51698 1.57127 4.55985 1.12502 4.30264 0.827518C4.05258 0.522935 3.60246 0.487518 3.30238 0.735435L1.10179 2.54877C0.801715 2.80377 0.758847 3.25002 1.01606 3.54752C1.26612 3.8521 1.71624 3.88752 2.01632 3.6396ZM7.66067 1.83335C4.10973 1.83335 1.2304 4.68794 1.2304 8.20835C1.2304 11.7288 4.10973 14.5834 7.66067 14.5834C11.2116 14.5834 14.091 11.7288 14.091 8.20835C14.091 4.68794 11.2116 1.83335 7.66067 1.83335ZM7.66067 13.1667C4.9028 13.1667 2.65935 10.9425 2.65935 8.20835C2.65935 5.47419 4.9028 3.25002 7.66067 3.25002C10.4185 3.25002 12.662 5.47419 12.662 8.20835C12.662 10.9425 10.4185 13.1667 7.66067 13.1667Z" fill="#595959"/>
</svg>
