<svg width="29" height="29" viewBox="0 0 29 29" fill="none" xmlns="http://www.w3.org/2000/svg">
<path d="M13.5841 0.879185C14.2907 0.356716 15.2556 0.356716 15.9622 0.879186L17.1452 1.75385C17.5758 2.07228 18.1162 2.20467 18.6453 2.12137L20.1038 1.89173C20.9746 1.75465 21.8323 2.20374 22.2158 2.99741L22.8444 4.29875C23.0788 4.78396 23.4991 5.15404 24.0101 5.32519L25.3912 5.78784C26.2324 6.0696 26.7874 6.87175 26.7546 7.75821L26.7021 9.17819C26.682 9.72042 26.8831 10.2475 27.2593 10.6386L28.2495 11.6681C28.8671 12.3102 28.9856 13.2833 28.54 14.0548L27.8302 15.2839C27.5584 15.7546 27.4898 16.3157 27.6404 16.838L28.0327 18.1992C28.279 19.0539 27.9313 19.9686 27.1794 20.4438L25.9604 21.2141C25.5032 21.5031 25.1825 21.9649 25.0715 22.4943L24.7777 23.8951C24.5962 24.7604 23.8681 25.4039 22.987 25.4776L21.523 25.6001C20.9879 25.6448 20.4933 25.9028 20.1505 26.3161L19.2185 27.4394C18.6569 28.1163 17.7191 28.3469 16.9077 28.0076L15.5448 27.4377C15.0511 27.2312 14.4953 27.2312 14.0016 27.4377L12.6387 28.0076C11.8273 28.3469 10.8894 28.1163 10.3279 27.4394L9.39587 26.3161C9.05302 25.9028 8.55842 25.6448 8.02335 25.6001L6.5594 25.4776C5.67831 25.4039 4.95017 24.7604 4.76869 23.8951L4.47491 22.4943C4.36388 21.9649 4.04318 21.5031 3.58593 21.2141L2.36699 20.4438C1.61506 19.9686 1.26732 19.0539 1.51366 18.1992L1.90599 16.838C2.05652 16.3157 1.98799 15.7546 1.71615 15.2839L1.00633 14.0548C0.560812 13.2833 0.679258 12.3102 1.29683 11.6681L2.2871 10.6386C2.66324 10.2475 2.86435 9.72042 2.84429 9.17819L2.79176 7.75821C2.75897 6.87175 3.31401 6.0696 4.15515 5.78784L5.53631 5.32519C6.04726 5.15404 6.46753 4.78395 6.70193 4.29875L7.3306 2.99741C7.71402 2.20374 8.57182 1.75465 9.44252 1.89173L10.9011 2.12137C11.4301 2.20467 11.9705 2.07228 12.4012 1.75385L13.5841 0.879185Z" fill="#F3CB00"/>
</svg>
