<svg width="24" height="24" viewBox="0 0 24 24" fill="none" xmlns="http://www.w3.org/2000/svg">
<g clip-path="url(#clip0_960_3637)">
<path d="M22.7715 9.48086L21.087 9.19509C20.9115 8.62856 20.6859 8.08208 20.4102 7.56067L21.4028 6.17192C21.824 5.58032 21.7588 4.77314 21.2424 4.26176L19.7484 2.76772C19.4676 2.48696 19.0966 2.33154 18.7005 2.33154C18.3897 2.33154 18.0939 2.4268 17.8432 2.60729L16.4494 3.59997C15.908 3.3142 15.3415 3.07856 14.7549 2.90309L14.4741 1.23859C14.3538 0.521653 13.7371 0.000244141 13.0102 0.000244141H10.8995C10.1725 0.000244141 9.55582 0.521653 9.4355 1.23859L9.14471 2.9432C8.58319 3.11867 8.03672 3.34929 7.51531 3.63005L6.13658 2.63737C5.8859 2.45688 5.58509 2.36162 5.27425 2.36162C4.87818 2.36162 4.50217 2.51704 4.22642 2.7978L2.72737 4.29184C2.21599 4.80322 2.1458 5.6104 2.56694 6.202L3.56965 7.61081C3.2939 8.13723 3.0733 8.68371 2.90284 9.25024L1.23835 9.531C0.521409 9.65132 0 10.268 0 10.995V13.1057C0 13.8326 0.521409 14.4493 1.23835 14.5696L2.94295 14.8604C3.11843 15.4219 3.34905 15.9684 3.62981 16.4898L2.64214 17.8635C2.221 18.4551 2.28618 19.2623 2.80257 19.7737L4.29661 21.2677C4.57737 21.5485 4.94837 21.7039 5.34444 21.7039C5.65528 21.7039 5.95108 21.6086 6.20176 21.4281L7.61056 20.4254C8.11693 20.6912 8.64837 20.9067 9.19485 21.0772L9.4756 22.7617C9.59593 23.4787 10.2126 24.0001 10.9396 24.0001H13.0553C13.7822 24.0001 14.3989 23.4787 14.5192 22.7617L14.805 21.0772C15.3715 20.9017 15.918 20.6761 16.4394 20.4004L17.8282 21.393C18.0789 21.5735 18.3797 21.6688 18.6905 21.6688C19.0866 21.6688 19.4576 21.5134 19.7383 21.2326L21.2324 19.7386C21.7438 19.2272 21.8139 18.42 21.3928 17.8284L20.4001 16.4347C20.6759 15.9082 20.9065 15.3618 21.077 14.8002L22.7615 14.5195C23.4784 14.3992 23.9999 13.7825 23.9999 13.0555V10.9448C24.0099 10.2179 23.4885 9.60119 22.7715 9.48086ZM22.6562 13.0555C22.6562 13.1207 22.6111 13.1758 22.5459 13.1859L20.4402 13.5368C20.1745 13.5819 19.9639 13.7775 19.8988 14.0332C19.7083 14.7702 19.4175 15.4771 19.0264 16.1338C18.891 16.3645 18.9011 16.6502 19.0565 16.8708L20.2948 18.6155C20.3299 18.6657 20.3249 18.7409 20.2798 18.786L18.7858 20.28C18.7507 20.3151 18.7156 20.3202 18.6905 20.3202C18.6604 20.3202 18.6354 20.3101 18.6153 20.2951L16.8756 19.0567C16.66 18.9013 16.3692 18.8913 16.1386 19.0267C15.4818 19.4177 14.7749 19.7085 14.0379 19.899C13.7772 19.9642 13.5817 20.1798 13.5416 20.4405L13.1856 22.5462C13.1756 22.6113 13.1205 22.6565 13.0553 22.6565H10.9446C10.8794 22.6565 10.8242 22.6113 10.8142 22.5462L10.4633 20.4405C10.4182 20.1748 10.2226 19.9642 9.96693 19.899C9.24999 19.7135 8.55813 19.4277 7.91138 19.0567C7.80609 18.9966 7.68577 18.9665 7.57046 18.9665C7.43509 18.9665 7.29471 19.0066 7.1794 19.0918L5.42466 20.3402C5.39959 20.3552 5.37452 20.3653 5.34945 20.3653C5.3294 20.3653 5.28929 20.3603 5.2542 20.3252L3.76016 18.8311C3.71504 18.786 3.71002 18.7158 3.74512 18.6607L4.97845 16.931C5.13387 16.7104 5.1439 16.4196 5.00853 16.189C4.61748 15.5372 4.31666 14.8303 4.12615 14.0933C4.05596 13.8376 3.84539 13.6421 3.58469 13.597L1.46396 13.236C1.39878 13.226 1.35366 13.1708 1.35366 13.1057V10.995C1.35366 10.9298 1.39878 10.8746 1.46396 10.8646L3.55461 10.5137C3.82032 10.4685 4.03591 10.273 4.10108 10.0123C4.28658 9.27531 4.57236 8.56338 4.9584 7.90661C5.09376 7.67598 5.07872 7.39021 4.9233 7.17463L3.67493 5.41989C3.63984 5.36975 3.64485 5.29455 3.68997 5.24943L5.18401 3.75539C5.2191 3.7203 5.2542 3.71528 5.27927 3.71528C5.30935 3.71528 5.33441 3.72531 5.35447 3.74035L7.08414 4.97368C7.30474 5.1291 7.59552 5.13913 7.82615 5.00376C8.47791 4.61271 9.18482 4.31189 9.92181 4.12138C10.1775 4.05119 10.373 3.84062 10.4182 3.57992L10.7791 1.45919C10.7892 1.39401 10.8443 1.34889 10.9095 1.34889H13.0202C13.0854 1.34889 13.1405 1.39401 13.1505 1.45919L13.5015 3.54984C13.5466 3.81555 13.7421 4.03114 14.0028 4.09631C14.7599 4.28683 15.4818 4.58263 16.1537 4.9787C16.3843 5.11406 16.67 5.10403 16.8906 4.94862L18.6203 3.70526C18.6454 3.69021 18.6704 3.68019 18.6955 3.68019C18.7156 3.68019 18.7557 3.6852 18.7908 3.7203L20.2848 5.21433C20.3299 5.25946 20.3349 5.32964 20.2999 5.38479L19.0615 7.12449C18.9061 7.34008 18.8961 7.63086 19.0314 7.86149C19.4225 8.51826 19.7133 9.22517 19.9038 9.96216C19.969 10.2229 20.1845 10.4184 20.4452 10.4585L22.5509 10.8145C22.6161 10.8245 22.6612 10.8796 22.6612 10.9448V13.0555H22.6562Z" fill="#000"/>
<path d="M12.0025 6.8186C9.14476 6.8186 6.82349 9.13988 6.82349 11.9976C6.82349 14.8553 9.14476 17.1766 12.0025 17.1766C14.8602 17.1766 17.1815 14.8553 17.1815 11.9976C17.1815 9.13988 14.8602 6.8186 12.0025 6.8186ZM12.0025 15.8229C9.89178 15.8229 8.17714 14.1083 8.17714 11.9976C8.17714 9.88689 9.89178 8.17226 12.0025 8.17226C14.1132 8.17226 15.8278 9.88689 15.8278 11.9976C15.8278 14.1083 14.1132 15.8229 12.0025 15.8229Z" fill="#000"/>
</g>
<defs>
<clipPath id="clip0_960_3637">
<rect width="24" height="24" fill="#000"/>
</clipPath>
</defs>
</svg>
