<svg width="16" height="9" viewBox="0 0 16 9" fill="none" xmlns="http://www.w3.org/2000/svg">
<path d="M15.6654 5.29783L12.2368 8.68323C12.0212 8.88878 11.7325 9.00253 11.4329 8.99996C11.1332 8.99739 10.8466 8.87871 10.6347 8.66948C10.4228 8.46025 10.3026 8.17722 10.3 7.88134C10.2974 7.58546 10.4126 7.30041 10.6207 7.08757L12.0985 5.62847H1.14287C0.839765 5.62847 0.549071 5.50957 0.33474 5.29795C0.12041 5.08632 0 4.79929 0 4.5C0 4.20071 0.12041 3.91368 0.33474 3.70205C0.549071 3.49043 0.839765 3.37153 1.14287 3.37153H12.0985L10.6207 1.91243C10.4126 1.69959 10.2974 1.41454 10.3 1.11866C10.3026 0.822781 10.4228 0.539747 10.6347 0.33052C10.8466 0.121293 11.1332 0.00261378 11.4329 4.2659e-05C11.7325 -0.00252846 12.0212 0.111215 12.2368 0.316774L15.6654 3.70217C15.8796 3.91379 16 4.20077 16 4.5C16 4.79923 15.8796 5.08621 15.6654 5.29783V5.29783Z" fill="white"/>
</svg>
